<?xml version="1.0" encoding="UTF-8"?>
<svg id="Layer_2" data-name="Layer 2" xmlns="http://www.w3.org/2000/svg" viewBox="0 0 114.65 103.81">
  <defs>
    <style>
      .cls-1 {
        fill: #00aeef;
      }

      .cls-2 {
        fill: #a7baea;
      }
    </style>
  </defs>
  <g id="Layer_1-2" data-name="Layer 1">
    <path class="cls-1" d="M77.98,54.8l-4.62,49h-12.46l2.59-25.83-18.9,25.83-8.68-26.53-7.63,26.53h-12.46l14.07-49h11.27l7.56,24.99,17.43-24.99h11.83Z"/>
    <path class="cls-2" d="M48.98,94.92c0-17.84,25.23-77.85,25.23-91.47,0-.97-.39-1.3-.91-1.3-7.2,0-38.53,54.43-40.61,59.81-.58,1.43-5.32-.58-5.32-4.48s5.84-45.48,3.57-45.48-7.98,13.82-13.88,27.12c-5.9,13.3-10.57,33.99-10.44,35.16.13,1.17,1.04,2.21-.91,2.21-2.4,0-5.71-3.11-5.71-3.63,0-.39.52-.13.97-.26.32-.06.52-.52.71-.78,2.98-4.67,22.97-63.32,28.8-63.32s5.64,3.96,5.45,6.42c-.19,2.14-2.34,29.13-3.05,38.14C46.77,31.93,65.65.53,72.59.01c3.89-.26,5.39,4.15,5.39,7.2,0,12.58-24,70.52-24,88.68,0,1.62,1.49,4.22-.45,3.89-1.95-.32-4.54-1.49-4.54-4.87Z"/>
    <path class="cls-1" d="M114.65,76.16c0,15.68-12.81,27.65-29.54,27.65h-16.59l9.52-49h14.07c13.58,0,22.54,8.4,22.54,21.35ZM101.98,77.14c0-6.58-4.41-10.78-11.06-10.78h-2.73l-4.97,25.9h3.01c8.82,0,15.75-6.58,15.75-15.12Z"/>
  </g>
</svg>