<?xml version="1.0" encoding="UTF-8"?>
<svg id="Layer_2" data-name="Layer 2" xmlns="http://www.w3.org/2000/svg" viewBox="0 0 415.66 121.82">
  <defs>
    <style>
      .cls-1 {
        fill: #00aeef;
      }

      .cls-2 {
        fill: #a7baea;
      }
    </style>
  </defs>
  <g id="Layer_1-2" data-name="Layer 1">
    <g>
      <path class="cls-1" d="M72.94,56.79l-4.62,49h-12.46l2.59-25.83-18.9,25.83-8.68-26.53-7.63,26.53h-12.46l14.07-49h11.27l7.56,24.99,17.43-24.99h11.83Z"/>
      <path class="cls-1" d="M103.88,93.96l2.17,8.47c-4.62,2.94-9.45,4.41-14.49,4.41-9.8,0-16.59-6.72-16.59-15.75,0-10.5,8.26-18.69,19.18-18.69,8.61,0,15.12,5.6,15.33,15.89l-22.89,7.42c1.33,1.47,3.29,2.38,5.74,2.38,2.66,0,6.65-.98,11.55-4.13ZM84.98,88.43l13.86-4.55c-1.12-1.75-3.15-2.66-5.46-2.66-4.13,0-7.56,3.08-8.4,7.21Z"/>
      <path class="cls-1" d="M155.54,55.25l-9.8,50.54h-10.57l.63-3.08c-2.31,2.38-5.25,3.99-9.17,3.99-7.91,0-14-6.65-14-15.61,0-10.43,8.26-18.62,17.71-18.62,3.92,0,7.07,1.4,9.1,3.99l3.85-19.88,12.25-1.33ZM137.83,88.85c0-3.64-2.66-6.37-6.3-6.37-4.27,0-7.7,3.57-7.7,7.84,0,3.64,2.66,6.37,6.37,6.37,4.27,0,7.63-3.57,7.63-7.84Z"/>
      <path class="cls-1" d="M159.1,74.01l12.32-1.26-6.44,33.04h-12.04l6.16-31.78ZM160.29,63.16c0-4.06,3.5-7.28,7.63-7.28,3.78,0,6.58,2.66,6.58,6.3,0,3.99-3.5,7.28-7.7,7.28-3.78,0-6.51-2.66-6.51-6.3Z"/>
      <path class="cls-1" d="M204.67,86.12l-2.8,14.07-.7,5.6h-10.01l.07-1.96c-2.31,1.89-5.25,3.08-8.54,3.08-6.16,0-10.57-4.27-10.57-10.29,0-7,5.74-12.39,13.51-12.39,2.94,0,5.53.91,7.84,2.31l.07-.21c.7-3.92-.91-5.74-6.44-5.74-2.8,0-5.6.42-8.61,1.19l2.66-8.12c2.8-.56,5.74-.91,9.03-.91,11.41,0,16.17,4.55,14.49,13.37ZM192.14,94.59c0-2.17-1.68-3.71-4.06-3.71-2.66,0-4.76,2.03-4.76,4.55,0,2.17,1.68,3.71,4.06,3.71,2.66,0,4.76-1.96,4.76-4.55Z"/>
      <path class="cls-1" d="M253.96,78.14c0,15.68-12.81,27.65-29.54,27.65h-16.59l9.52-49h14.07c13.58,0,22.54,8.4,22.54,21.35ZM241.28,79.12c0-6.58-4.41-10.78-11.06-10.78h-2.73l-4.97,25.9h3.01c8.82,0,15.75-6.58,15.75-15.12Z"/>
      <path class="cls-1" d="M285.38,93.96l2.17,8.47c-4.62,2.94-9.45,4.41-14.49,4.41-9.8,0-16.59-6.72-16.59-15.75,0-10.5,8.26-18.69,19.18-18.69,8.61,0,15.12,5.6,15.33,15.89l-22.89,7.42c1.33,1.47,3.29,2.38,5.74,2.38,2.66,0,6.65-.98,11.55-4.13ZM266.48,88.43l13.86-4.55c-1.12-1.75-3.15-2.66-5.46-2.66-4.13,0-7.56,3.08-8.4,7.21Z"/>
      <path class="cls-1" d="M292.17,102.85l2.66-8.05c2.52,2.03,5.67,3.36,8.54,3.36,1.75,0,2.87-.7,2.87-1.89,0-.98-.77-1.68-3.15-2.87l-1.4-.7c-3.64-1.82-5.74-5.11-5.74-9.17,0-6.23,5.18-11.2,12.88-11.2,3.5,0,7.77,1.05,11.13,3.01l-2.8,8.19c-2.52-1.68-6.02-2.8-8.12-2.8-1.75,0-2.87.77-2.87,1.89,0,.91.63,1.68,2.24,2.31l1.4.7c4.76,2.52,7.14,5.6,7.14,10.15,0,6.58-5.18,11.06-12.81,11.06-4.62,0-8.75-1.54-11.97-3.99Z"/>
      <path class="cls-1" d="M326.96,74.01l12.32-1.26-6.44,33.04h-12.04l6.16-31.78ZM328.15,63.16c0-4.06,3.5-7.28,7.63-7.28,3.78,0,6.58,2.66,6.58,6.3,0,3.99-3.5,7.28-7.7,7.28-3.78,0-6.51-2.66-6.51-6.3Z"/>
      <path class="cls-1" d="M370.29,99.98c1.12,1.82,1.82,4.06,1.82,6.37,0,8.54-7.98,15.47-18.34,15.47-7.91,0-13.09-3.36-16.66-8.33l7.28-6.72c2.73,3.78,6.09,5.53,9.94,5.53,4.34,0,7.49-2.45,7.49-5.81,0-.77-.14-1.47-.49-2.1-1.26.28-2.66.42-4.06.42-9.1,0-15.75-6.16-15.75-14.56,0-9.66,7.91-17.15,19.04-17.22l16.73-.14-3.99,6.79c1.54,2.17,2.45,4.83,2.45,7.91,0,4.9-2.1,9.24-5.46,12.39ZM358.11,95.36c1.12,0,2.24-.28,3.22-.77l.07-.14h.14c2.03-1.19,3.5-3.43,3.5-5.95,0-3.43-2.45-5.95-5.95-5.95-3.78,0-6.79,3.08-6.79,6.86,0,3.43,2.45,5.95,5.81,5.95Z"/>
      <path class="cls-1" d="M415.3,86.4l-3.78,19.39h-12.04l3.64-18.41c.56-2.94-.91-4.76-3.64-4.76-2.59,0-4.9,1.61-5.6,5.04l-3.5,18.13h-11.97l6.16-31.78,11.97-1.19-.84,4.2c2.38-2.87,5.67-4.41,9.8-4.41,7.21,0,11.48,4.9,9.8,13.79Z"/>
    </g>
    <g>
      <path class="cls-2" d="M33.97,73.89c0-12.37,17.5-54,17.5-63.45,0-.67-.27-.9-.63-.9-4.99,0-26.73,37.75-28.17,41.49-.4.99-3.69-.41-3.69-3.1s4.05-31.54,2.47-31.54-5.53,9.58-9.63,18.81c-4.09,9.22-7.33,23.58-7.24,24.39.09.81.72,1.53-.63,1.53-1.67,0-3.96-2.16-3.96-2.52,0-.27.36-.09.67-.18.22-.04.36-.36.5-.54,2.07-3.24,15.93-43.92,19.98-43.92s3.91,2.75,3.78,4.46c-.13,1.48-1.62,20.2-2.11,26.46,9.63-14.67,22.72-36.45,27.54-36.81,2.7-.18,3.74,2.88,3.74,4.99,0,8.73-16.65,48.91-16.65,61.51,0,1.12,1.04,2.92-.32,2.7-1.35-.23-3.15-1.04-3.15-3.38Z"/>
      <path class="cls-2" d="M49.77,55.08c.04-1.71.45-3.6,1.03-5.4-1.62-1.3-2.29-3.06-2.29-4.72,0-6.12,6.08-10.17,10.84-10.17,2.66,0,4.86,1.89,4.86,4.63,0,3.24-1.44,7.69-3.33,11.56,4.37-.58,9.99-3.51,13.32-9.09.27-.45,1.53.14,1.12.67-2.12,2.97-7.96,8.77-14.98,9.45-2.21,4-4.86,7.15-6.84,7.15s-3.78-2.29-3.73-4.09ZM54.9,50.49c1.17.36,2.65.58,4.45.58h.27c1.89-3.69,3.38-8.28,3.38-12.24,0-1.84-1.12-3.01-2.66-3.01-5.31,0-9.36,7.74-9.36,10.17,0,.68.13,1.35.45,1.98,1.66-3.96,4.05-7.15,5.08-7.15,1.62,0,2.38,1.35,1.98,2.07-1.12,2.11-2.52,4.95-3.6,7.6ZM54.49,51.52c-1.4,3.55-2.16,6.52-.99,6.52,1.44,0,3.69-2.47,5.62-5.98h-.09c-1.75,0-3.29-.18-4.54-.54Z"/>
      <path class="cls-2" d="M69.16,55.17c.5-1.48,5.71-17.41,5.71-20.7,0-1.12,3.19,1.4,2.83,2.66-.36,1.26-6.52,18.18-5.04,16.06,1.49-2.11,8.19-12.42,11.11-12.33,1.89.04,2.34,3.46,3.02,5.13.22.5.49.85.76.9,2.25.36,8.46-4.68,9.4-5.49.95-.81,1.44.14.58.85-.85.72-6.61,6.44-8.55,6.52-2.16.09-3.42-1.67-4.09-3.28-.54-1.35-.72-2.56-1.39-2.52-3.38.36-10.75,13.81-11.47,15.57s-3.38-1.89-2.88-3.38Z"/>
      <path class="cls-2" d="M92.25,53.32c0-6.7,5.94-15.48,10.84-15.48,2.16,0,3.33,1.08,3.33,2.7,0,2.12-2.43,5.31-4.91,5.31-1.48,0-2.2-.9-2.92-1.8-2.07,3.06-3.73,7.2-3.73,11.11,0,2.07.95,3.42,2.83,3.42,4.9-.09,17.91-14.8,19.03-16.15.76-.94,1.39.5.63,1.26-2.7,2.83-14.58,15.88-19.17,15.88-3.42,0-5.94-2.07-5.94-6.25ZM98.91,43.56c.45.63,1.17.99,1.71.99,1.17,0,4.36-2.2,4.36-4.81,0-.32-.13-.58-.54-.58-1.53,0-3.64,1.75-5.53,4.41Z"/>
      <path class="cls-2" d="M109.21,74.02c0-13.14,19.35-74.02,22.99-74.02,1.17,0,4.14,1.48,3.6,2.34-.45.72-1.3-.23-2.34.4-4.72,2.88-20.97,56.25-20.97,70.42,0,1.57.09,3.28,1.08,3.28,3.1,0,16.2-24.48,21.82-35.68.09-.18,1.26.14.94.72-7.06,13.09-18.31,36.27-22.18,36.27-2.38,0-4.95-1.26-4.95-3.73Z"/>
      <path class="cls-2" d="M142.06,58c0-3.82,3.06-11.16,4.72-16.65-4.63,4.27-11.7,14.71-14.76,14.71-.9,0-2.43-1.4-2.43-2.97,0-3.1,4.73-14.71,8.91-14.71,3.1,0,5.49,2.83,5.13,3.38-.54.76-1.58-1.04-2.57-1.04-2.47,0-8.95,8.05-8.95,12.91,0,.5.36.54.5.54,2.11,0,10.8-10.89,12.33-12.82s2.16-2.65,2.79-2.65,1.98.81,1.98,2.02c0,1.62-5.08,15.52-5.08,19.03,0,.81.63.94.85.94,3.1,0,15.61-15.66,17.95-17.86.63-.58.9.31.58.68-.18.23-5.35,6.39-9.99,11.65-3.24,3.65-6.17,6.93-7.79,6.93-2.34,0-4.18-2.43-4.18-4.09Z"/>
      <path class="cls-2" d="M156.51,59.44c.22-3.42,2.43-10.57,5-17.19.09-.22.09-.4,0-.63l-.05-.09c-.09-.18-.13-.45-.04-.67.58-1.26,1.85-3.69,2.39-3.87.58-.18,2.38.85,2.29,1.98-.09,1.12-4.86,9.9-6.3,18.27-.41,2.25,11.34-19.12,18.13-19.12,1.21,0,2.12.9,2.12,2.79,0,3.15-5.26,15.93-3.96,16.65,2.07,1.17,15.12-14.04,15.97-14.94.85-.9,1.3-.09.81.58-.5.67-12.37,15.84-16.38,15.84-2.16,0-3.2-1.89-3.2-2.7,0-6.07,5.35-16.24,4.27-17.05-2.16-1.62-11.25,9.85-18.58,22.23-.45.36-2.56-.36-2.47-2.07Z"/>
      <path class="cls-2" d="M200.02,74.43c-2.75-2.65-1.8-7.87-.95-11.56.86-3.69,7.47-24.79,9.5-29.25-1.89,2.21-16.47,22.05-19.71,22.05-1.35,0-2.97-2.16-2.97-3.38,0-3.82,6.44-12.91,9.63-12.91,2.07,0,4.23,1.17,5.45,2.02,3.69-4.68,7.06-9.31,8.23-11.07,2.66-4,7.78-18.9,10.35-18.9.81,0,1.71.5,1.71,1.4,0,1.35-5.54,8.77-7.11,12.01-1.57,3.24-13.63,34.96-12.51,46.66.22,2.38.9,3.55,1.21,3.87.58.58-1.17.68-2.83-.94ZM188.91,53.73c1.71,0,6.75-5.71,11.43-11.56-.59-.36-.99-.72-1.8-.72-3.28,0-9.94,9.09-9.94,11.88,0,.27.13.4.32.4Z"/>
    </g>
  </g>
</svg>